<svg id="svg" xmlns="http://www.w3.org/2000/svg" xmlns:xlink="http://www.w3.org/1999/xlink" width="400" height="400" viewBox="0, 0, 400,400"><g id="svgg"><path id="path0" d="M58.333 200.167 L 58.333 319.000 200.167 319.000 L 342.000 319.000 342.000 200.167 L 342.000 81.333 200.167 81.333 L 58.333 81.333 58.333 200.167 M335.000 200.167 L 335.000 312.333 200.000 312.333 L 65.000 312.333 65.000 200.167 L 65.000 88.000 200.000 88.000 L 335.000 88.000 335.000 200.167 M163.081 134.497 C 146.739 138.720,134.961 158.516,137.484 177.521 C 138.788 187.343,140.208 191.409,148.472 208.983 C 157.331 227.820,158.282 234.537,153.446 244.113 C 148.825 253.264,140.658 253.098,139.354 243.828 C 138.954 240.987,140.065 229.947,140.888 228.583 C 141.104 228.226,140.766 228.247,131.167 229.165 C 126.400 229.621,122.194 229.996,121.819 229.997 C 120.322 230.003,118.442 246.441,119.318 251.869 C 121.114 263.002,126.661 267.813,138.855 268.814 C 154.988 270.139,167.667 261.012,173.327 244.000 C 178.642 228.025,177.278 218.044,166.746 195.833 C 156.719 174.688,155.609 170.262,158.149 161.568 C 159.704 156.247,161.457 153.517,164.082 152.325 C 170.290 149.507,172.883 155.964,170.533 168.391 C 170.296 169.643,170.130 170.667,170.164 170.667 C 170.197 170.667,174.384 170.292,179.467 169.833 C 184.550 169.375,188.979 169.000,189.310 169.000 C 190.939 169.000,191.885 152.493,190.559 147.188 C 187.805 136.170,176.612 131.000,163.081 134.497 M200.180 137.083 C 200.067 138.229,197.812 167.367,195.168 201.833 C 192.525 236.300,190.284 265.137,190.187 265.917 L 190.013 267.333 197.756 267.329 L 205.500 267.325 215.967 237.746 C 232.154 192.000,231.281 194.231,230.663 200.200 C 230.492 201.852,229.453 216.921,228.355 233.685 C 227.256 250.450,226.284 264.879,226.194 265.750 L 226.031 267.333 233.766 267.329 L 241.500 267.326 264.333 201.621 C 276.892 165.484,287.215 135.711,287.274 135.459 C 287.364 135.078,285.833 135.000,278.263 135.000 L 269.143 135.000 257.286 171.417 C 247.834 200.447,245.309 207.857,244.834 207.950 C 244.306 208.054,244.262 207.884,244.449 206.450 C 244.667 204.781,251.000 136.078,251.000 135.388 C 251.000 135.105,249.065 135.000,243.861 135.000 L 236.722 135.000 224.585 171.417 C 214.035 203.071,212.359 207.847,211.765 207.934 C 211.132 208.028,211.103 207.932,211.366 206.601 C 211.521 205.812,213.149 190.092,214.984 171.667 C 216.819 153.242,218.412 137.454,218.524 136.583 L 218.729 135.000 209.558 135.000 L 200.386 135.000 200.180 137.083 " stroke="none" fill="#5065A8" fill-rule="evenodd"></path></g></svg>